<svg xmlns="http://www.w3.org/2000/svg" xmlns:xlink="http://www.w3.org/1999/xlink" width="234" zoomAndPan="magnify" viewBox="0 0 175.5 254.999984" height="340" preserveAspectRatio="xMidYMid meet" version="1.0"><defs><clipPath id="1b9d4b93af"><path d="M 0 0.363281 L 174.4375 0.363281 L 174.4375 250 L 0 250 Z M 0 0.363281 " clip-rule="nonzero"/></clipPath></defs><g clip-path="url(#1b9d4b93af)"><path fill="#d5d7f3" d="M 87.144531 0.441406 C 135.269531 0.441406 174.285156 39.457031 174.285156 87.585938 C 174.285156 104.332031 169.558594 119.96875 161.371094 133.25 C 151.550781 149.515625 141.730469 165.789062 131.910156 182.058594 C 119.949219 201.5 110.269531 217.234375 98.308594 236.675781 C 87.765625 253.820312 87.054688 254.238281 76.453125 237.007812 C 64.554688 217.664062 54.546875 201.402344 42.648438 182.058594 C 32.851562 165.96875 23.054688 149.882812 13.253906 133.796875 C 4.859375 120.402344 0 104.5625 0 87.585938 C 0 39.457031 39.015625 0.441406 87.144531 0.441406 Z M 87.144531 44.132812 C 108.71875 44.132812 126.210938 61.625 126.210938 83.199219 C 126.210938 104.773438 108.71875 122.265625 87.144531 122.265625 C 65.566406 122.265625 48.078125 104.773438 48.078125 83.199219 C 48.078125 61.625 65.566406 44.132812 87.144531 44.132812 Z M 87.144531 44.132812 " fill-opacity="1" fill-rule="evenodd"/></g></svg>