<svg xmlns="http://www.w3.org/2000/svg" xmlns:xlink="http://www.w3.org/1999/xlink" width="92" zoomAndPan="magnify" viewBox="0 0 69 66.75" height="89" preserveAspectRatio="xMidYMid meet" version="1.0"><defs><clipPath id="f290e7ca44"><path d="M 0.128906 0 L 68.125 0 L 68.125 48.566406 L 0.128906 48.566406 Z M 0.128906 0 " clip-rule="nonzero"/></clipPath></defs><g clip-path="url(#f290e7ca44)"><path fill="#000000" d="M 64.21875 0 C 63.785156 0 63.355469 0 62.921875 0 L 4.410156 0 C 2.523438 0 0.742188 1.078125 0.308594 3.023438 C 0.203125 3.832031 0.148438 4.640625 0.203125 5.449219 L 0.203125 43.171875 C 0.148438 44.089844 0.203125 45.007812 0.417969 45.871094 C 1.011719 47.652344 2.683594 48.566406 4.464844 48.566406 L 64.21875 48.566406 C 64.328125 48.566406 64.433594 48.515625 64.542969 48.460938 C 66.703125 48.246094 68.105469 46.464844 68.105469 44.25 L 68.105469 4.210938 C 68.105469 1.941406 66.539062 0.0546875 64.21875 0 Z M 1.550781 3.886719 C 1.605469 2.210938 2.902344 1.296875 4.464844 1.296875 L 58.605469 1.296875 C 60.441406 1.296875 62.328125 1.242188 64.164062 1.296875 C 65.785156 1.347656 66.808594 2.589844 66.808594 4.15625 L 66.808594 8.851562 L 9.054688 8.851562 C 6.515625 8.851562 4.035156 8.742188 1.550781 8.851562 C 1.496094 7.230469 1.496094 5.558594 1.550781 3.886719 Z M 66.753906 44.574219 C 66.753906 45.976562 65.621094 47.109375 64.164062 47.164062 C 64.109375 47.164062 64.058594 47.164062 64.058594 47.164062 L 4.734375 47.164062 C 3.601562 47.164062 2.46875 47.003906 1.875 45.871094 C 1.441406 45.058594 1.550781 44.144531 1.550781 43.226562 L 1.550781 10.792969 C 1.550781 10.632812 1.550781 10.414062 1.550781 10.253906 L 59.253906 10.253906 C 61.789062 10.253906 64.273438 10.359375 66.753906 10.253906 L 66.753906 44.035156 C 66.753906 44.195312 66.753906 44.414062 66.753906 44.574219 Z M 66.753906 44.574219 " fill-opacity="1" fill-rule="nonzero"/></g><path fill="#000000" d="M 6.085938 5.71875 C 6.085938 5.667969 6.03125 5.667969 6.085938 5.71875 Z M 6.085938 5.71875 " fill-opacity="1" fill-rule="nonzero"/><path fill="#000000" d="M 8.730469 6.960938 C 9.109375 6.53125 9.269531 6.042969 9.269531 5.449219 C 9.269531 5.34375 9.269531 5.289062 9.269531 5.179688 C 9.160156 4.316406 8.566406 3.617188 7.757812 3.292969 C 6.894531 2.96875 5.871094 3.238281 5.277344 3.9375 C 4.464844 4.910156 4.574219 6.3125 5.492188 7.175781 C 6.464844 7.988281 7.867188 7.878906 8.730469 6.960938 Z M 7.921875 5.289062 C 7.921875 5.289062 7.921875 5.34375 7.921875 5.289062 C 7.921875 5.34375 7.921875 5.34375 7.921875 5.34375 C 7.921875 5.34375 7.921875 5.34375 7.921875 5.289062 Z M 6.03125 5.289062 C 6.03125 5.234375 6.03125 5.234375 6.03125 5.179688 C 6.03125 5.125 6.085938 5.074219 6.085938 4.964844 L 6.140625 4.855469 L 6.191406 4.75 C 6.246094 4.695312 6.300781 4.640625 6.355469 4.585938 L 6.410156 4.585938 C 6.355469 4.640625 6.410156 4.585938 6.464844 4.585938 C 6.515625 4.53125 6.625 4.53125 6.679688 4.480469 C 6.679688 4.480469 6.515625 4.53125 6.625 4.480469 L 6.734375 4.425781 L 6.839844 4.425781 C 6.839844 4.425781 6.839844 4.425781 6.894531 4.425781 C 6.894531 4.425781 6.949219 4.425781 6.949219 4.425781 L 7.109375 4.425781 L 7.378906 4.480469 C 7.488281 4.53125 7.488281 4.53125 7.488281 4.53125 L 7.597656 4.640625 C 7.542969 4.585938 7.488281 4.585938 7.542969 4.640625 L 7.703125 4.804688 C 7.703125 4.855469 7.757812 4.855469 7.757812 4.910156 L 7.8125 5.019531 C 7.8125 5.074219 7.8125 5.125 7.867188 5.125 C 7.867188 5.179688 7.8125 5.234375 7.8125 5.289062 C 7.8125 5.34375 7.8125 5.34375 7.8125 5.394531 C 7.8125 5.449219 7.757812 5.558594 7.757812 5.613281 C 7.757812 5.613281 7.757812 5.667969 7.757812 5.667969 C 7.757812 5.667969 7.757812 5.667969 7.757812 5.71875 C 7.703125 5.773438 7.652344 5.882812 7.652344 5.9375 C 7.652344 5.9375 7.597656 5.988281 7.597656 5.988281 C 7.597656 5.988281 7.542969 6.042969 7.542969 6.042969 L 7.488281 6.042969 C 7.433594 6.097656 7.433594 6.097656 7.488281 6.042969 C 7.433594 6.097656 7.378906 6.097656 7.378906 6.152344 L 7.328125 6.207031 L 7.058594 6.3125 C 7.003906 6.3125 7.003906 6.3125 6.949219 6.3125 L 6.734375 6.3125 C 6.679688 6.3125 6.625 6.3125 6.625 6.261719 L 6.515625 6.207031 C 6.410156 6.152344 6.570312 6.207031 6.570312 6.207031 C 6.570312 6.207031 6.410156 6.097656 6.410156 6.097656 L 6.300781 6.042969 C 6.300781 6.042969 6.140625 5.882812 6.140625 5.882812 L 6.085938 5.828125 L 6.085938 5.71875 C 6.085938 5.71875 6.085938 5.773438 6.085938 5.773438 C 6.085938 5.773438 6.03125 5.613281 6.03125 5.558594 Z M 6.03125 5.289062 " fill-opacity="1" fill-rule="nonzero"/><path fill="#000000" d="M 14.128906 6.851562 C 14.453125 6.476562 14.613281 5.988281 14.667969 5.503906 C 14.667969 5.449219 14.667969 5.449219 14.667969 5.394531 C 14.667969 5.394531 14.667969 5.34375 14.667969 5.34375 C 14.667969 4.371094 14.074219 3.507812 13.15625 3.183594 C 12.292969 2.859375 11.265625 3.128906 10.671875 3.832031 C 9.863281 4.804688 9.972656 6.207031 10.890625 7.070312 C 11.859375 7.933594 13.265625 7.824219 14.128906 6.851562 Z M 11.484375 5.289062 C 11.484375 5.234375 11.484375 5.234375 11.484375 5.179688 C 11.484375 5.125 11.535156 5.074219 11.535156 4.964844 L 11.589844 4.855469 L 11.644531 4.75 C 11.699219 4.695312 11.753906 4.640625 11.808594 4.585938 L 11.859375 4.585938 C 11.859375 4.585938 11.859375 4.585938 11.914062 4.585938 C 11.96875 4.53125 12.078125 4.53125 12.128906 4.480469 C 12.128906 4.480469 11.96875 4.53125 12.078125 4.480469 L 12.183594 4.425781 L 12.292969 4.425781 C 12.292969 4.425781 12.292969 4.425781 12.347656 4.425781 C 12.347656 4.425781 12.402344 4.425781 12.402344 4.425781 L 12.507812 4.425781 L 12.777344 4.480469 C 12.886719 4.53125 12.886719 4.53125 12.886719 4.53125 C 12.886719 4.53125 12.941406 4.53125 12.941406 4.585938 C 12.941406 4.585938 12.941406 4.585938 12.996094 4.640625 L 13.15625 4.804688 C 13.15625 4.855469 13.210938 4.855469 13.210938 4.910156 L 13.265625 5.019531 C 13.316406 5.125 13.316406 5.179688 13.316406 5.234375 C 13.316406 5.234375 13.316406 5.234375 13.316406 5.289062 C 13.316406 5.289062 13.316406 5.289062 13.316406 5.34375 C 13.316406 5.394531 13.316406 5.394531 13.316406 5.449219 C 13.316406 5.503906 13.265625 5.613281 13.265625 5.667969 C 13.265625 5.667969 13.265625 5.71875 13.265625 5.71875 C 13.265625 5.71875 13.265625 5.71875 13.265625 5.773438 L 13.15625 5.988281 C 13.15625 5.988281 13.101562 6.042969 13.101562 6.042969 L 13.046875 6.097656 C 12.996094 6.152344 12.996094 6.152344 13.046875 6.097656 C 12.996094 6.152344 12.941406 6.152344 12.941406 6.207031 L 12.886719 6.261719 L 12.5625 6.3125 C 12.507812 6.3125 12.507812 6.3125 12.453125 6.3125 L 12.078125 6.3125 L 11.96875 6.261719 C 11.859375 6.207031 12.023438 6.261719 12.023438 6.261719 C 12.023438 6.261719 11.859375 6.152344 11.859375 6.152344 C 11.859375 6.152344 11.808594 6.097656 11.753906 6.097656 C 11.753906 6.097656 11.589844 5.9375 11.589844 5.9375 L 11.535156 5.882812 L 11.589844 5.828125 L 11.589844 5.773438 C 11.589844 5.71875 11.535156 5.71875 11.589844 5.773438 C 11.589844 5.71875 11.535156 5.667969 11.535156 5.613281 C 11.535156 5.613281 11.535156 5.558594 11.535156 5.503906 C 11.484375 5.449219 11.484375 5.34375 11.484375 5.289062 Z M 11.484375 5.289062 " fill-opacity="1" fill-rule="nonzero"/><path fill="#000000" d="M 11.484375 5.289062 C 11.535156 5.125 11.484375 5.234375 11.484375 5.289062 Z M 11.484375 5.289062 " fill-opacity="1" fill-rule="nonzero"/><path fill="#000000" d="M 19.6875 6.960938 C 20.066406 6.53125 20.226562 6.042969 20.226562 5.449219 C 20.226562 5.34375 20.226562 5.289062 20.226562 5.179688 C 20.066406 4.316406 19.527344 3.617188 18.714844 3.292969 C 17.851562 2.96875 16.828125 3.238281 16.234375 3.9375 C 15.421875 4.910156 15.53125 6.3125 16.449219 7.175781 C 17.367188 8.039062 18.824219 7.878906 19.6875 6.960938 Z M 18.878906 5.289062 C 18.878906 5.289062 18.878906 5.34375 18.878906 5.289062 C 18.878906 5.34375 18.878906 5.34375 18.878906 5.34375 C 18.878906 5.34375 18.878906 5.34375 18.878906 5.289062 Z M 16.988281 5.289062 C 16.988281 5.289062 16.988281 5.234375 16.988281 5.179688 C 16.988281 5.125 17.042969 5.019531 17.042969 4.964844 L 17.097656 4.855469 L 17.152344 4.75 C 17.203125 4.695312 17.257812 4.640625 17.3125 4.585938 L 17.367188 4.585938 C 17.3125 4.640625 17.367188 4.585938 17.421875 4.585938 C 17.472656 4.53125 17.582031 4.53125 17.636719 4.480469 C 17.636719 4.480469 17.472656 4.53125 17.582031 4.480469 L 17.691406 4.425781 L 17.796875 4.425781 C 17.796875 4.425781 17.796875 4.425781 17.851562 4.425781 C 17.851562 4.425781 17.90625 4.425781 17.90625 4.425781 L 18.121094 4.425781 L 18.390625 4.480469 C 18.5 4.53125 18.5 4.53125 18.5 4.53125 L 18.554688 4.585938 C 18.554688 4.585938 18.554688 4.585938 18.609375 4.640625 L 18.769531 4.804688 C 18.769531 4.855469 18.824219 4.855469 18.824219 4.910156 C 18.824219 4.964844 18.878906 4.964844 18.878906 5.019531 C 18.878906 5.074219 18.933594 5.125 18.933594 5.179688 C 18.933594 5.234375 18.878906 5.289062 18.878906 5.34375 C 18.878906 5.394531 18.878906 5.394531 18.878906 5.449219 C 18.878906 5.503906 18.824219 5.613281 18.824219 5.667969 C 18.824219 5.667969 18.824219 5.667969 18.824219 5.71875 C 18.769531 5.773438 18.714844 5.882812 18.714844 5.9375 C 18.714844 5.9375 18.660156 5.988281 18.660156 5.988281 C 18.660156 5.988281 18.609375 6.042969 18.609375 6.042969 C 18.554688 6.097656 18.554688 6.097656 18.609375 6.042969 C 18.554688 6.097656 18.5 6.097656 18.5 6.152344 L 18.445312 6.207031 L 18.015625 6.3125 C 17.960938 6.3125 17.960938 6.3125 17.90625 6.3125 L 17.691406 6.3125 L 17.582031 6.261719 L 17.472656 6.207031 C 17.367188 6.207031 17.527344 6.207031 17.527344 6.207031 C 17.527344 6.207031 17.367188 6.097656 17.367188 6.097656 L 17.257812 6.042969 C 17.257812 6.042969 17.152344 5.9375 17.097656 5.882812 L 17.042969 5.773438 L 17.097656 5.71875 C 17.097656 5.667969 17.042969 5.558594 17.042969 5.503906 L 17.042969 5.394531 C 16.988281 5.394531 16.988281 5.34375 16.988281 5.289062 Z M 16.988281 5.289062 " fill-opacity="1" fill-rule="nonzero"/><path fill="#000000" d="M 18.015625 6.3125 C 18.015625 6.261719 17.90625 6.3125 18.015625 6.3125 Z M 18.015625 6.3125 " fill-opacity="1" fill-rule="nonzero"/><path fill="#000000" d="M 16.988281 5.289062 C 17.042969 5.125 16.988281 5.234375 16.988281 5.289062 Z M 16.988281 5.289062 " fill-opacity="1" fill-rule="nonzero"/><path fill="#000000" d="M 42.089844 21.746094 C 41.546875 21.101562 40.578125 22.070312 41.117188 22.71875 L 46.351562 28.710938 L 41.117188 34.699219 C 40.523438 35.347656 41.496094 36.316406 42.089844 35.671875 L 47.753906 29.195312 C 48.027344 28.925781 48.027344 28.492188 47.753906 28.222656 Z M 42.089844 21.746094 " fill-opacity="1" fill-rule="nonzero"/><path fill="#000000" d="M 26.21875 21.746094 L 20.605469 28.222656 C 20.335938 28.492188 20.335938 28.925781 20.605469 29.195312 L 26.21875 35.671875 C 26.8125 36.316406 27.730469 35.347656 27.191406 34.699219 L 21.953125 28.710938 L 27.191406 22.71875 C 27.785156 22.070312 26.8125 21.101562 26.21875 21.746094 Z M 26.21875 21.746094 " fill-opacity="1" fill-rule="nonzero"/><path fill="#000000" d="M 36.796875 21.855469 L 31.183594 33.1875 L 30.375 34.808594 C 29.996094 35.5625 31.128906 36.265625 31.5625 35.507812 L 37.230469 24.175781 L 38.039062 22.558594 C 38.308594 21.800781 37.175781 21.101562 36.796875 21.855469 Z M 36.796875 21.855469 " fill-opacity="1" fill-rule="nonzero"/></svg>