<svg xmlns="http://www.w3.org/2000/svg" xmlns:xlink="http://www.w3.org/1999/xlink" width="84" zoomAndPan="magnify" viewBox="0 0 63 62.999997" height="84" preserveAspectRatio="xMidYMid meet" version="1.0"><defs><clipPath id="5e82341e21"><path d="M 0 0 L 50.25 0 L 50.25 50.25 L 0 50.25 Z M 0 0 " clip-rule="nonzero"/></clipPath></defs><g clip-path="url(#5e82341e21)"><path fill="#d5d7f3" d="M 41.058594 0.0117188 L 9.460938 0.0117188 C 4.253906 0.0117188 0.015625 4.25 0.015625 9.457031 L 0.015625 41.050781 C 0.015625 46.261719 4.253906 50.5 9.460938 50.5 L 41.058594 50.5 C 46.265625 50.5 50.503906 46.261719 50.503906 41.050781 L 50.503906 9.457031 C 50.503906 4.25 46.265625 0.0117188 41.058594 0.0117188 Z M 9.460938 2.996094 L 41.058594 2.996094 C 44.621094 2.996094 47.519531 5.894531 47.519531 9.457031 L 47.519531 23.765625 L 38.851562 23.765625 C 38.59375 21.40625 37.734375 19.230469 36.429688 17.386719 C 36.4375 17.386719 36.445312 17.386719 36.453125 17.386719 C 39.46875 17.386719 41.921875 14.933594 41.921875 11.917969 C 41.921875 8.902344 39.46875 6.449219 36.453125 6.449219 C 33.4375 6.449219 30.984375 8.902344 30.984375 11.917969 C 30.984375 12.25 31.019531 12.570312 31.074219 12.882812 C 29.308594 12.050781 27.335938 11.582031 25.257812 11.582031 C 18.222656 11.582031 12.414062 16.925781 11.671875 23.765625 L 3 23.765625 L 3 9.457031 C 3 5.894531 5.898438 2.996094 9.460938 2.996094 Z M 35.949219 25.253906 C 35.949219 31.148438 31.152344 35.945312 25.257812 35.945312 C 19.367188 35.945312 14.570312 31.148438 14.570312 25.253906 C 14.570312 19.363281 19.367188 14.566406 25.257812 14.566406 C 31.152344 14.566406 35.949219 19.363281 35.949219 25.253906 Z M 33.964844 11.917969 C 33.964844 10.546875 35.082031 9.433594 36.453125 9.433594 C 37.824219 9.433594 38.9375 10.546875 38.9375 11.917969 C 38.9375 13.289062 37.824219 14.40625 36.453125 14.40625 C 35.082031 14.40625 33.964844 13.289062 33.964844 11.917969 Z M 41.058594 47.515625 L 9.460938 47.515625 C 5.898438 47.515625 3 44.617188 3 41.050781 L 3 26.746094 L 11.671875 26.746094 C 12.414062 33.585938 18.222656 38.929688 25.257812 38.929688 C 32.292969 38.929688 38.105469 33.585938 38.847656 26.746094 L 47.519531 26.746094 L 47.519531 41.050781 C 47.519531 44.617188 44.621094 47.515625 41.058594 47.515625 Z M 41.058594 47.515625 " fill-opacity="1" fill-rule="nonzero"/></g><path fill="#d5d7f3" d="M 18.757812 41.132812 C 17.1875 40.488281 15.722656 39.613281 14.402344 38.53125 C 12.75 37.179688 11.378906 35.554688 10.328125 33.703125 C 9.921875 32.988281 9.011719 32.734375 8.296875 33.140625 C 7.578125 33.546875 7.328125 34.457031 7.734375 35.175781 C 8.96875 37.347656 10.574219 39.253906 12.511719 40.839844 C 14.058594 42.109375 15.78125 43.136719 17.625 43.890625 C 17.8125 43.96875 18.003906 44.003906 18.191406 44.003906 C 18.777344 44.003906 19.335938 43.65625 19.570312 43.078125 C 19.882812 42.316406 19.519531 41.445312 18.757812 41.132812 Z M 18.757812 41.132812 " fill-opacity="1" fill-rule="nonzero"/></svg>