<svg xmlns="http://www.w3.org/2000/svg" xmlns:xlink="http://www.w3.org/1999/xlink" width="68" zoomAndPan="magnify" viewBox="0 0 50.879997 55.5" height="74" preserveAspectRatio="xMidYMid meet" version="1.0"><defs><clipPath id="cc1757caa3"><path d="M 12.894531 2.480469 L 37.421875 2.480469 L 37.421875 54.511719 L 12.894531 54.511719 Z M 12.894531 2.480469 " clip-rule="nonzero"/></clipPath></defs><g clip-path="url(#cc1757caa3)"><path fill="#d5d7f3" d="M 31.835938 11.136719 L 37.515625 11.136719 L 37.515625 2.570312 L 30.261719 2.570312 L 30.261719 2.605469 C 20.726562 2.953125 18.757812 8.296875 18.59375 13.941406 L 18.574219 13.941406 L 18.574219 19.886719 L 12.894531 19.886719 L 12.894531 28.460938 L 18.574219 28.460938 L 18.574219 54.523438 L 28.765625 54.523438 L 28.765625 28.460938 L 36.074219 28.460938 L 37.515625 19.886719 L 28.765625 19.886719 L 28.765625 14.566406 C 28.765625 12.675781 30.03125 11.136719 31.835938 11.136719 Z M 31.835938 11.136719 " fill-opacity="1" fill-rule="nonzero"/></g></svg>