<svg xmlns="http://www.w3.org/2000/svg" xmlns:xlink="http://www.w3.org/1999/xlink" width="230" zoomAndPan="magnify" viewBox="0 0 172.5 149.999998" height="200" preserveAspectRatio="xMidYMid meet" version="1.0"><defs><clipPath id="1b0536446b"><path d="M 0 0.214844 L 160 0.214844 L 160 137.070312 L 0 137.070312 Z M 0 0.214844 " clip-rule="nonzero"/></clipPath></defs><g clip-path="url(#1b0536446b)"><path fill="#d5d7f3" d="M 6.214844 44.484375 L 26.542969 31.625 L 26.542969 15.214844 C 26.542969 13.625 27.835938 12.332031 29.425781 12.332031 L 57.046875 12.332031 L 72.851562 2.339844 C 75.074219 0.933594 77.519531 0.230469 79.96875 0.230469 C 82.417969 0.230469 84.863281 0.933594 87.082031 2.339844 L 102.886719 12.332031 L 130.507812 12.332031 C 132.101562 12.332031 133.390625 13.625 133.390625 15.214844 L 133.390625 31.625 L 153.722656 44.484375 L 153.769531 44.511719 L 153.8125 44.539062 L 153.816406 44.542969 L 153.863281 44.574219 L 153.90625 44.601562 L 153.910156 44.601562 L 153.957031 44.632812 L 153.996094 44.660156 L 154.003906 44.664062 L 154.085938 44.722656 L 154.097656 44.726562 L 154.140625 44.757812 L 154.234375 44.820312 L 154.28125 44.855469 L 154.324219 44.886719 L 154.355469 44.90625 L 154.371094 44.917969 L 154.414062 44.949219 L 154.445312 44.96875 L 154.460938 44.980469 L 154.503906 45.015625 L 154.53125 45.03125 L 154.550781 45.046875 L 154.59375 45.078125 L 154.617188 45.097656 L 154.636719 45.113281 L 154.683594 45.144531 L 154.703125 45.164062 L 154.726562 45.179688 L 154.855469 45.277344 L 154.875 45.292969 L 154.902344 45.3125 L 155.027344 45.414062 L 155.042969 45.425781 C 155.179688 45.535156 155.316406 45.648438 155.445312 45.765625 L 155.449219 45.765625 C 155.582031 45.882812 155.714844 46.003906 155.84375 46.121094 L 155.847656 46.125 C 155.9375 46.210938 156.027344 46.296875 156.113281 46.386719 L 156.144531 46.414062 L 156.152344 46.425781 L 156.191406 46.460938 L 156.21875 46.488281 L 156.226562 46.5 L 156.265625 46.539062 L 156.289062 46.566406 L 156.300781 46.574219 L 156.339844 46.613281 L 156.363281 46.640625 L 156.375 46.652344 L 156.410156 46.691406 L 156.449219 46.730469 L 156.484375 46.773438 C 157.199219 47.542969 157.8125 48.390625 158.3125 49.300781 C 159.375 51.226562 159.933594 53.410156 159.933594 55.742188 L 159.933594 123.824219 C 159.933594 127.496094 158.4375 130.828125 156.023438 133.242188 C 153.933594 135.332031 151.148438 136.734375 148.054688 137.070312 L 148.03125 137.074219 L 147.9375 137.085938 L 147.828125 137.09375 L 147.796875 137.097656 L 147.71875 137.105469 L 147.628906 137.113281 L 147.605469 137.113281 L 147.496094 137.121094 L 147.460938 137.125 L 147.386719 137.128906 L 147.289062 137.132812 L 147.273438 137.132812 L 147.164062 137.140625 L 147.121094 137.140625 L 147.054688 137.144531 L 146.949219 137.148438 L 146.777344 137.148438 L 146.71875 137.152344 L 13.21875 137.152344 L 13.15625 137.148438 L 12.984375 137.148438 L 12.882812 137.144531 L 12.8125 137.140625 L 12.769531 137.140625 L 12.660156 137.132812 L 12.644531 137.132812 L 12.546875 137.128906 L 12.472656 137.125 L 12.4375 137.121094 L 12.328125 137.113281 L 12.304688 137.113281 L 12.21875 137.105469 L 12.136719 137.097656 L 12.109375 137.09375 L 12 137.085938 L 11.96875 137.082031 L 11.886719 137.074219 L 11.878906 137.070312 C 8.785156 136.734375 6.003906 135.332031 3.910156 133.242188 C 1.496094 130.828125 0 127.496094 0 123.824219 L 0 55.742188 C 0 53.410156 0.5625 51.226562 1.625 49.300781 C 2.125 48.390625 2.734375 47.546875 3.449219 46.773438 L 3.484375 46.734375 L 3.5 46.714844 L 3.523438 46.691406 L 3.558594 46.652344 L 3.574219 46.640625 L 3.597656 46.617188 L 3.632812 46.578125 L 3.644531 46.566406 L 3.667969 46.539062 L 3.820312 46.386719 L 3.855469 46.347656 L 3.867188 46.339844 L 3.894531 46.3125 L 4.011719 46.199219 L 4.015625 46.195312 L 4.050781 46.164062 L 4.09375 46.121094 C 4.167969 46.050781 4.246094 45.976562 4.324219 45.90625 L 4.328125 45.90625 C 4.507812 45.742188 4.699219 45.582031 4.890625 45.425781 L 4.90625 45.414062 L 4.976562 45.359375 L 4.992188 45.347656 L 5.207031 45.179688 L 5.230469 45.164062 L 5.25 45.144531 L 5.296875 45.113281 L 5.316406 45.097656 L 5.339844 45.082031 L 5.382812 45.046875 L 5.402344 45.03125 L 5.429688 45.015625 L 5.472656 44.980469 L 5.492188 44.96875 L 5.519531 44.949219 L 5.5625 44.917969 L 5.578125 44.90625 L 5.609375 44.886719 L 5.65625 44.855469 L 5.667969 44.84375 L 5.699219 44.824219 L 5.746094 44.789062 L 5.839844 44.726562 L 5.847656 44.722656 L 5.882812 44.695312 L 5.929688 44.664062 L 5.9375 44.660156 L 5.976562 44.636719 L 6.023438 44.605469 L 6.03125 44.601562 L 6.070312 44.574219 L 6.121094 44.542969 L 6.121094 44.539062 Z M 26.542969 38.425781 L 9.277344 49.34375 L 9.257812 49.355469 L 9.226562 49.378906 L 9.222656 49.378906 L 9.207031 49.386719 L 9.175781 49.410156 L 9.167969 49.414062 L 9.140625 49.433594 L 9.125 49.445312 L 9.117188 49.445312 L 9.109375 49.453125 L 9.089844 49.464844 L 9.074219 49.476562 L 9.066406 49.480469 L 9.042969 49.5 L 9.023438 49.511719 L 9.007812 49.519531 L 8.976562 49.542969 L 8.960938 49.550781 L 8.960938 49.554688 L 8.945312 49.566406 L 8.925781 49.578125 L 8.914062 49.589844 L 8.910156 49.589844 L 8.847656 49.636719 L 8.828125 49.648438 L 8.765625 49.695312 L 8.761719 49.695312 L 8.75 49.707031 L 8.546875 49.859375 L 8.535156 49.875 L 8.519531 49.882812 L 8.519531 49.886719 L 8.488281 49.910156 L 8.414062 49.972656 L 8.382812 49.996094 L 8.378906 50 L 8.367188 50.007812 L 8.261719 50.097656 L 26.542969 61.660156 Z M 133.390625 61.660156 L 151.671875 50.097656 L 151.65625 50.085938 L 151.648438 50.078125 L 151.640625 50.074219 L 151.613281 50.046875 L 151.601562 50.039062 L 151.597656 50.035156 L 151.582031 50.023438 L 151.566406 50.007812 L 151.554688 50 L 151.554688 49.996094 L 151.507812 49.960938 L 151.492188 49.945312 L 151.460938 49.921875 L 151.449219 49.910156 L 151.417969 49.886719 L 151.402344 49.871094 L 151.371094 49.847656 L 151.367188 49.847656 L 151.355469 49.835938 L 151.324219 49.8125 L 151.320312 49.808594 L 151.308594 49.800781 L 151.277344 49.777344 L 151.269531 49.769531 L 151.261719 49.765625 L 151.230469 49.742188 L 151.222656 49.734375 L 151.214844 49.730469 L 151.183594 49.707031 L 151.171875 49.695312 L 151.167969 49.695312 L 151.152344 49.683594 L 151.136719 49.667969 L 151.121094 49.660156 L 151.074219 49.625 L 151.054688 49.613281 L 150.976562 49.554688 L 150.972656 49.550781 L 150.957031 49.542969 L 150.925781 49.519531 L 150.910156 49.511719 L 150.894531 49.5 L 150.875 49.488281 L 150.867188 49.480469 L 150.859375 49.476562 L 150.828125 49.453125 L 150.816406 49.445312 L 150.808594 49.445312 L 150.777344 49.421875 L 150.765625 49.414062 L 150.761719 49.410156 L 150.742188 49.398438 L 150.726562 49.386719 L 150.710938 49.378906 L 150.691406 49.367188 L 150.660156 49.34375 L 133.390625 38.425781 Z M 67.800781 12.332031 L 92.136719 12.332031 L 84.019531 7.199219 C 82.75 6.394531 81.355469 5.996094 79.96875 5.996094 C 78.578125 5.996094 77.1875 6.398438 75.914062 7.199219 Z M 132.230469 69.191406 C 132.113281 69.28125 131.988281 69.359375 131.855469 69.429688 L 99.230469 90.0625 L 154.113281 124.773438 C 154.152344 124.460938 154.171875 124.144531 154.171875 123.824219 L 154.171875 55.742188 C 154.171875 55.601562 154.167969 55.460938 154.160156 55.324219 Z M 102.066406 18.097656 L 32.308594 18.097656 L 32.308594 65.304688 L 75.3125 92.503906 C 76.773438 93.425781 78.371094 93.886719 79.96875 93.886719 C 81.5625 93.886719 83.160156 93.425781 84.621094 92.503906 L 127.628906 65.304688 L 127.628906 18.097656 Z M 5.824219 124.769531 L 60.703125 90.0625 L 27.894531 69.3125 L 27.855469 69.289062 L 5.773438 55.324219 C 5.765625 55.460938 5.765625 55.601562 5.765625 55.742188 L 5.765625 123.824219 C 5.765625 124.144531 5.785156 124.460938 5.824219 124.769531 Z M 66.082031 93.464844 L 8.667969 129.773438 C 9.765625 130.632812 11.101562 131.199219 12.558594 131.347656 L 12.570312 131.351562 L 12.652344 131.355469 L 12.695312 131.359375 L 12.75 131.367188 L 12.757812 131.367188 L 12.824219 131.371094 L 12.84375 131.371094 L 12.886719 131.375 L 12.941406 131.378906 L 12.949219 131.378906 L 13.011719 131.382812 L 13.074219 131.382812 L 13.132812 131.386719 L 146.800781 131.386719 L 146.859375 131.382812 L 146.921875 131.382812 L 146.988281 131.378906 L 146.992188 131.378906 L 147.050781 131.375 L 147.089844 131.371094 L 147.113281 131.371094 L 147.175781 131.367188 L 147.1875 131.367188 L 147.238281 131.359375 L 147.28125 131.355469 L 147.363281 131.351562 L 147.378906 131.347656 C 148.832031 131.199219 150.167969 130.632812 151.265625 129.773438 L 93.855469 93.464844 L 87.683594 97.367188 C 85.273438 98.890625 82.621094 99.652344 79.96875 99.652344 C 77.3125 99.652344 74.660156 98.890625 72.253906 97.367188 Z M 66.082031 93.464844 " fill-opacity="1" fill-rule="nonzero"/></g><path fill="#d5d7f3" d="M 96.871094 63.003906 L 101.667969 63.003906 C 100.171875 66.070312 97.867188 68.464844 94.757812 70.199219 C 91.210938 72.191406 86.871094 73.1875 81.757812 73.1875 C 76.804688 73.1875 72.535156 72.351562 68.933594 70.675781 C 65.332031 68.996094 62.652344 66.523438 60.898438 63.257812 C 59.140625 59.988281 58.265625 56.433594 58.265625 52.578125 C 58.265625 48.351562 59.265625 44.421875 61.261719 40.773438 C 63.25 37.132812 65.984375 34.398438 69.445312 32.574219 C 72.910156 30.746094 76.871094 29.832031 81.328125 29.832031 C 85.105469 29.832031 88.46875 30.566406 91.402344 32.035156 C 94.34375 33.507812 96.59375 35.597656 98.144531 38.308594 C 99.695312 41.019531 100.46875 43.976562 100.46875 47.1875 C 100.46875 51.015625 99.296875 54.472656 96.9375 57.566406 C 93.988281 61.46875 90.203125 63.417969 85.589844 63.417969 C 84.34375 63.417969 83.40625 63.203125 82.777344 62.773438 C 82.148438 62.335938 81.734375 61.707031 81.519531 60.871094 C 79.753906 62.566406 77.710938 63.417969 75.40625 63.417969 C 72.917969 63.417969 70.851562 62.558594 69.207031 60.847656 C 67.566406 59.125 66.742188 56.847656 66.742188 53.996094 C 66.742188 50.472656 67.734375 47.261719 69.707031 44.351562 C 72.109375 40.8125 75.183594 39.046875 78.929688 39.046875 C 81.59375 39.046875 83.570312 40.066406 84.835938 42.109375 L 85.398438 39.597656 L 91.332031 39.597656 L 87.929688 55.710938 C 87.722656 56.730469 87.617188 57.390625 87.617188 57.691406 C 87.617188 58.058594 87.699219 58.34375 87.878906 58.527344 C 88.046875 58.71875 88.253906 58.8125 88.492188 58.8125 C 89.210938 58.8125 90.140625 58.375 91.285156 57.507812 C 92.816406 56.371094 94.050781 54.832031 94.996094 52.921875 C 95.941406 51.003906 96.414062 49.015625 96.414062 46.957031 C 96.414062 43.269531 95.078125 40.183594 92.414062 37.703125 C 89.742188 35.222656 86.019531 33.976562 81.234375 33.976562 C 77.171875 33.976562 73.722656 34.808594 70.898438 36.464844 C 68.074219 38.132812 65.945312 40.464844 64.515625 43.484375 C 63.082031 46.496094 62.367188 49.636719 62.367188 52.898438 C 62.367188 56.070312 63.164062 58.949219 64.761719 61.554688 C 66.359375 64.15625 68.601562 66.054688 71.488281 67.25 C 74.367188 68.441406 77.671875 69.039062 81.394531 69.039062 C 84.972656 69.039062 88.0625 68.535156 90.632812 67.527344 C 93.214844 66.523438 95.296875 65.015625 96.871094 63.003906 Z M 72.59375 53.757812 C 72.59375 55.664062 72.980469 57.070312 73.746094 57.96875 C 74.523438 58.867188 75.476562 59.320312 76.609375 59.320312 C 77.464844 59.320312 78.261719 59.113281 79.007812 58.691406 C 79.574219 58.390625 80.136719 57.914062 80.6875 57.269531 C 81.488281 56.355469 82.171875 55.027344 82.746094 53.269531 C 83.324219 51.515625 83.605469 49.882812 83.605469 48.359375 C 83.605469 46.671875 83.214844 45.367188 82.433594 44.460938 C 81.640625 43.554688 80.652344 43.101562 79.460938 43.101562 C 78.171875 43.101562 76.980469 43.601562 75.890625 44.597656 C 74.800781 45.597656 73.976562 47.015625 73.425781 48.859375 C 72.871094 50.703125 72.59375 52.339844 72.59375 53.757812 Z M 72.59375 53.757812 " fill-opacity="1" fill-rule="nonzero"/></svg>