<svg xmlns="http://www.w3.org/2000/svg" xmlns:xlink="http://www.w3.org/1999/xlink" width="66" zoomAndPan="magnify" viewBox="0 0 49.5 66.749998" height="89" preserveAspectRatio="xMidYMid meet" version="1.0"><defs><clipPath id="e62c16b0e8"><path d="M 0 3.421875 L 49 3.421875 L 49 50.941406 L 0 50.941406 Z M 0 3.421875 " clip-rule="nonzero"/></clipPath></defs><path fill="#000000" d="M 24.503906 24.277344 C 22.257812 24.277344 20.429688 26.113281 20.429688 28.371094 C 20.429688 30.625 22.257812 32.460938 24.503906 32.460938 C 26.75 32.460938 28.578125 30.625 28.578125 28.371094 C 28.578125 26.113281 26.75 24.277344 24.503906 24.277344 Z M 24.503906 30.765625 C 23.1875 30.765625 22.117188 29.691406 22.117188 28.371094 C 22.117188 27.046875 23.1875 25.972656 24.503906 25.972656 C 25.816406 25.972656 26.886719 27.046875 26.886719 28.371094 C 26.886719 29.691406 25.816406 30.765625 24.503906 30.765625 Z M 24.503906 30.765625 " fill-opacity="1" fill-rule="nonzero"/><g clip-path="url(#e62c16b0e8)"><path fill="#000000" d="M 44.929688 38.007812 C 44.011719 38.007812 43.175781 38.328125 42.492188 38.84375 L 32.511719 32.269531 C 33.085938 31.085938 33.433594 29.773438 33.433594 28.371094 C 33.433594 25.648438 32.199219 23.238281 30.289062 21.589844 L 37.003906 11.746094 C 37.378906 11.859375 37.765625 11.941406 38.171875 11.941406 C 40.417969 11.941406 42.246094 10.101562 42.246094 7.847656 C 42.246094 5.589844 40.417969 3.757812 38.171875 3.757812 C 35.925781 3.757812 34.097656 5.59375 34.097656 7.847656 C 34.097656 9.082031 34.65625 10.175781 35.519531 10.929688 L 28.910156 20.613281 C 27.605469 19.863281 26.113281 19.398438 24.503906 19.398438 C 22.21875 19.398438 20.152344 20.292969 18.570312 21.714844 L 13.976562 16.902344 C 14.550781 16.199219 14.90625 15.3125 14.90625 14.335938 C 14.90625 12.078125 13.078125 10.242188 10.832031 10.242188 C 8.585938 10.242188 6.757812 12.078125 6.757812 14.335938 C 6.757812 16.59375 8.585938 18.425781 10.832031 18.425781 C 11.496094 18.425781 12.109375 18.253906 12.660156 17.972656 L 17.421875 22.964844 C 16.277344 24.472656 15.570312 26.332031 15.570312 28.371094 C 15.570312 29.773438 15.917969 31.082031 16.496094 32.265625 L 7.050781 38.417969 C 6.304688 37.613281 5.25 37.097656 4.074219 37.097656 C 1.828125 37.097656 0 38.933594 0 41.191406 C 0 43.445312 1.828125 45.28125 4.074219 45.28125 C 6.316406 45.28125 8.148438 43.445312 8.148438 41.191406 C 8.148438 40.730469 8.054688 40.292969 7.914062 39.878906 L 17.375 33.714844 C 18.640625 35.417969 20.476562 36.664062 22.613281 37.128906 L 22.351562 42.515625 C 20.335938 42.761719 18.765625 44.46875 18.765625 46.554688 C 18.765625 48.8125 20.59375 50.648438 22.839844 50.648438 C 25.085938 50.648438 26.914062 48.8125 26.914062 46.554688 C 26.914062 44.71875 25.695312 43.179688 24.035156 42.664062 L 24.296875 37.320312 C 24.367188 37.320312 24.429688 37.339844 24.5 37.339844 C 27.425781 37.339844 30 35.902344 31.628906 33.71875 L 41.378906 40.136719 C 41.054688 40.722656 40.855469 41.386719 40.855469 42.101562 C 40.855469 44.355469 42.683594 46.191406 44.925781 46.191406 C 47.171875 46.191406 49 44.355469 49 42.101562 C 49 39.84375 47.175781 38.007812 44.929688 38.007812 Z M 38.171875 5.453125 C 39.484375 5.453125 40.554688 6.527344 40.554688 7.847656 C 40.554688 9.167969 39.484375 10.242188 38.171875 10.242188 C 36.859375 10.242188 35.789062 9.167969 35.789062 7.847656 C 35.789062 6.527344 36.859375 5.453125 38.171875 5.453125 Z M 4.074219 43.585938 C 2.757812 43.585938 1.691406 42.511719 1.691406 41.191406 C 1.691406 39.871094 2.757812 38.796875 4.074219 38.796875 C 5.390625 38.796875 6.457031 39.871094 6.457031 41.191406 C 6.457031 42.511719 5.386719 43.585938 4.074219 43.585938 Z M 25.226562 46.554688 C 25.226562 47.875 24.15625 48.949219 22.84375 48.949219 C 21.527344 48.949219 20.457031 47.875 20.457031 46.554688 C 20.457031 45.234375 21.527344 44.160156 22.84375 44.160156 C 24.15625 44.164062 25.226562 45.238281 25.226562 46.554688 Z M 8.449219 14.335938 C 8.449219 13.015625 9.519531 11.941406 10.832031 11.941406 C 12.148438 11.941406 13.21875 13.015625 13.21875 14.335938 C 13.21875 15.65625 12.148438 16.730469 10.832031 16.730469 C 9.519531 16.730469 8.449219 15.65625 8.449219 14.335938 Z M 24.503906 35.644531 C 20.507812 35.644531 17.261719 32.382812 17.261719 28.371094 C 17.261719 24.355469 20.507812 21.09375 24.503906 21.09375 C 28.496094 21.09375 31.746094 24.355469 31.746094 28.371094 C 31.746094 32.382812 28.496094 35.644531 24.503906 35.644531 Z M 44.929688 44.496094 C 43.617188 44.496094 42.546875 43.421875 42.546875 42.101562 C 42.546875 40.78125 43.617188 39.703125 44.929688 39.703125 C 46.246094 39.703125 47.316406 40.78125 47.316406 42.101562 C 47.316406 43.421875 46.246094 44.496094 44.929688 44.496094 Z M 44.929688 44.496094 " fill-opacity="1" fill-rule="nonzero"/></g></svg>