<svg xmlns="http://www.w3.org/2000/svg" xmlns:xlink="http://www.w3.org/1999/xlink" width="80" zoomAndPan="magnify" viewBox="0 0 60 78.749999" height="105" preserveAspectRatio="xMidYMid meet" version="1.0"><defs><clipPath id="5deeb3886c"><path d="M 24 6 L 47.941406 6 L 47.941406 43 L 24 43 Z M 24 6 " clip-rule="nonzero"/></clipPath><clipPath id="561b079ed7"><path d="M 0.09375 0 L 31 0 L 31 65.792969 L 0.09375 65.792969 Z M 0.09375 0 " clip-rule="nonzero"/></clipPath></defs><g clip-path="url(#5deeb3886c)"><path fill="#000000" d="M 47.417969 14.042969 C 47.832031 12.605469 47.660156 11.097656 46.929688 9.789062 C 46.199219 8.484375 45 7.535156 43.550781 7.125 C 42.105469 6.710938 40.582031 6.886719 39.265625 7.609375 C 37.949219 8.335938 36.996094 9.523438 36.578125 10.960938 C 36.171875 12.375 36.355469 13.859375 37.023438 15.113281 C 35.851562 14.957031 34.707031 15.664062 34.371094 16.824219 C 34.015625 18.058594 34.703125 19.335938 35.90625 19.753906 L 33.84375 25.382812 L 31.789062 26.445312 C 30.828125 26.941406 30.066406 27.757812 29.640625 28.742188 L 28.980469 30.269531 L 26.945312 30.722656 C 25.949219 30.941406 25.191406 31.734375 25.019531 32.734375 L 24.476562 35.929688 C 24.414062 36.296875 24.636719 36.652344 24.996094 36.753906 L 43.46875 42.007812 C 43.535156 42.027344 43.605469 42.035156 43.671875 42.035156 C 43.964844 42.035156 44.234375 41.863281 44.351562 41.585938 L 45.597656 38.589844 C 45.984375 37.648438 45.765625 36.582031 45.039062 35.867188 L 43.554688 34.414062 L 43.808594 32.773438 C 43.972656 31.710938 43.761719 30.617188 43.214844 29.695312 L 42.039062 27.710938 L 43.289062 21.855469 C 43.46875 21.898438 43.648438 21.921875 43.824219 21.921875 C 44.878906 21.921875 45.855469 21.234375 46.160156 20.175781 C 46.335938 19.558594 46.261719 18.910156 45.949219 18.347656 C 45.691406 17.886719 45.296875 17.539062 44.824219 17.328125 C 46.058594 16.617188 47.007812 15.453125 47.414062 14.042969 Z M 37.320312 20.167969 L 39.597656 20.816406 L 41.871094 21.460938 L 40.703125 26.921875 L 35.398438 25.410156 Z M 44.234375 38.03125 L 43.242188 40.425781 L 26.035156 35.53125 L 26.472656 32.980469 C 26.542969 32.566406 26.855469 32.238281 27.269531 32.144531 L 29.484375 31.652344 L 35.9375 33.488281 L 42.386719 35.324219 L 44.003906 36.90625 C 44.308594 37.203125 44.398438 37.644531 44.234375 38.03125 Z M 42.355469 32.550781 L 42.167969 33.742188 L 30.511719 30.425781 L 30.992188 29.316406 C 31.285156 28.640625 31.808594 28.082031 32.46875 27.738281 L 34.515625 26.679688 L 40.773438 28.460938 L 41.945312 30.4375 C 42.320312 31.070312 42.46875 31.820312 42.355469 32.550781 Z M 44.746094 19.777344 C 44.601562 20.277344 44.070312 20.566406 43.566406 20.425781 L 42.9375 20.25 L 37.066406 18.578125 L 36.4375 18.398438 C 35.933594 18.257812 35.640625 17.730469 35.785156 17.230469 C 35.855469 16.984375 36.015625 16.785156 36.238281 16.664062 C 36.460938 16.539062 36.71875 16.511719 36.964844 16.582031 L 44.089844 18.609375 C 44.335938 18.679688 44.539062 18.835938 44.660156 19.058594 C 44.785156 19.28125 44.816406 19.535156 44.746094 19.777344 Z M 46.003906 13.640625 C 45.535156 15.261719 44.101562 16.441406 42.417969 16.609375 L 39.789062 15.863281 L 39.449219 15.765625 C 38.109375 14.734375 37.527344 12.984375 37.996094 11.363281 C 38.300781 10.300781 39.003906 9.421875 39.980469 8.886719 C 40.953125 8.351562 42.078125 8.222656 43.144531 8.527344 C 44.214844 8.832031 45.101562 9.53125 45.640625 10.5 C 46.179688 11.464844 46.308594 12.578125 46.003906 13.640625 Z M 46.003906 13.640625 " fill-opacity="1" fill-rule="nonzero"/></g><g clip-path="url(#561b079ed7)"><path fill="#000000" d="M 29.800781 54.382812 L 26.855469 52.035156 C 26.359375 51.640625 26.027344 51.082031 25.921875 50.460938 L 25.75 49.480469 C 25.539062 48.238281 24.5 47.308594 23.230469 47.226562 L 22.679688 47.191406 L 21.472656 45.105469 C 19.945312 42.46875 18.910156 39.609375 18.394531 36.609375 L 17.472656 31.261719 L 18.949219 31.011719 C 19.714844 30.882812 20.3125 30.339844 20.507812 29.59375 C 20.707031 28.851562 20.453125 28.085938 19.851562 27.597656 L 17.367188 25.589844 L 16.921875 23.003906 L 18.3125 14.785156 C 18.464844 13.878906 18.207031 12.960938 17.605469 12.261719 C 17.007812 11.5625 16.125 11.179688 15.207031 11.175781 L 13.730469 11.1875 L 13.28125 10.871094 C 12.683594 10.449219 12.273438 9.828125 12.121094 9.117188 L 13.324219 8.914062 C 13.726562 8.847656 13.996094 8.46875 13.925781 8.074219 L 13.222656 3.976562 C 13.15625 3.578125 12.773438 3.3125 12.375 3.378906 L 10.308594 3.726562 L 9.964844 1.738281 C 9.925781 1.496094 9.769531 1.296875 9.546875 1.195312 L 7.195312 0.132812 C 6.921875 0.0078125 6.597656 0.0625 6.382812 0.269531 L 4.519531 2.046875 C 4.34375 2.210938 4.261719 2.457031 4.304688 2.695312 L 4.644531 4.6875 L 2.582031 5.039062 C 2.183594 5.105469 1.910156 5.480469 1.980469 5.878906 L 2.683594 9.976562 C 2.753906 10.375 3.132812 10.640625 3.535156 10.574219 L 4.738281 10.371094 C 4.832031 11.089844 4.652344 11.8125 4.226562 12.40625 L 3.910156 12.851562 L 2.511719 13.324219 C 1.636719 13.621094 0.945312 14.28125 0.613281 15.140625 C 0.277344 15.996094 0.34375 16.945312 0.789062 17.75 L 4.847656 25.050781 L 5.292969 27.636719 L 3.617188 30.347656 C 3.210938 31.003906 3.230469 31.808594 3.664062 32.445312 C 4.035156 32.992188 4.628906 33.300781 5.273438 33.300781 C 5.382812 33.300781 5.496094 33.292969 5.609375 33.273438 L 7.085938 33.023438 L 8.003906 38.371094 C 8.519531 41.367188 8.496094 44.40625 7.933594 47.398438 L 7.492188 49.761719 L 6.984375 49.976562 C 5.8125 50.472656 5.144531 51.691406 5.359375 52.933594 L 5.527344 53.914062 C 5.636719 54.535156 5.507812 55.171875 5.171875 55.707031 L 3.179688 58.890625 C 2.722656 59.617188 2.738281 60.507812 3.21875 61.21875 C 3.554688 61.714844 4.0625 62.023438 4.625 62.121094 L 4.859375 63.480469 C 5.09375 64.835938 6.285156 65.800781 7.628906 65.800781 C 7.785156 65.800781 7.945312 65.785156 8.101562 65.757812 L 27.449219 62.484375 C 28.976562 62.226562 30.007812 60.785156 29.75 59.265625 L 29.515625 57.917969 C 30.015625 57.640625 30.390625 57.175781 30.542969 56.59375 C 30.757812 55.765625 30.476562 54.917969 29.804688 54.382812 Z M 15.839844 25.386719 L 6.664062 26.9375 L 6.402344 25.402344 L 15.574219 23.847656 Z M 4.011719 9.007812 L 3.554688 6.351562 L 5.617188 6 C 6.019531 5.933594 6.289062 5.554688 6.21875 5.160156 L 5.820312 2.828125 L 7.042969 1.664062 L 8.582031 2.359375 L 8.984375 4.691406 C 9.050781 5.089844 9.433594 5.355469 9.832031 5.289062 L 11.898438 4.9375 L 12.351562 7.59375 L 11.148438 7.800781 C 10.746094 7.867188 10.476562 8.246094 10.546875 8.640625 L 10.648438 9.25 C 10.796875 10.09375 11.175781 10.859375 11.753906 11.472656 L 8.8125 11.96875 L 5.875 12.464844 C 6.210938 11.699219 6.316406 10.851562 6.171875 10.007812 L 6.066406 9.402344 C 6.007812 9.046875 5.695312 8.792969 5.34375 8.792969 C 5.300781 8.792969 5.261719 8.796875 5.21875 8.804688 Z M 1.984375 15.664062 C 2.160156 15.210938 2.527344 14.859375 2.988281 14.703125 L 4.558594 14.171875 L 13.5625 12.648438 L 15.21875 12.632812 L 15.234375 12.632812 C 15.71875 12.632812 16.175781 12.84375 16.488281 13.207031 C 16.804688 13.578125 16.941406 14.0625 16.859375 14.542969 L 15.539062 22.371094 L 5.945312 23.996094 L 2.082031 17.042969 C 1.84375 16.621094 1.808594 16.117188 1.984375 15.664062 Z M 5.363281 31.832031 C 5.089844 31.878906 4.933594 31.703125 4.882812 31.628906 C 4.832031 31.550781 4.726562 31.347656 4.871094 31.109375 L 6.515625 28.445312 L 16.480469 26.757812 L 18.921875 28.730469 C 19.140625 28.90625 19.109375 29.136719 19.085938 29.222656 C 19.0625 29.3125 18.976562 29.527344 18.699219 29.574219 Z M 20.199219 45.835938 L 21.078125 47.347656 L 9.058594 49.382812 L 9.378906 47.664062 C 9.972656 44.503906 10 41.292969 9.453125 38.125 L 8.535156 32.777344 L 16.023438 31.507812 L 16.941406 36.855469 C 17.488281 40.027344 18.582031 43.046875 20.199219 45.835938 Z M 4.441406 60.402344 C 4.382812 60.316406 4.207031 60.007812 4.425781 59.660156 L 6.421875 56.476562 C 6.949219 55.636719 7.144531 54.640625 6.976562 53.667969 L 6.808594 52.6875 C 6.710938 52.113281 7.019531 51.546875 7.5625 51.320312 L 8.351562 50.984375 L 22.277344 48.628906 L 23.136719 48.683594 C 23.722656 48.722656 24.203125 49.152344 24.300781 49.726562 L 24.46875 50.707031 C 24.636719 51.679688 25.15625 52.554688 25.933594 53.175781 L 28.878906 55.523438 C 29.203125 55.777344 29.140625 56.125 29.113281 56.226562 C 29.089844 56.324219 28.972656 56.660156 28.5625 56.726562 L 5.125 60.695312 C 4.71875 60.761719 4.496094 60.488281 4.4375 60.402344 Z M 27.203125 61.042969 L 7.855469 64.320312 C 7.128906 64.441406 6.433594 63.953125 6.308594 63.234375 L 6.101562 62.011719 L 28.085938 58.289062 L 28.296875 59.511719 C 28.421875 60.234375 27.929688 60.921875 27.203125 61.042969 Z M 27.203125 61.042969 " fill-opacity="1" fill-rule="nonzero"/></g><path fill="#000000" d="M 24.175781 26.820312 C 24.242188 26.839844 24.3125 26.847656 24.378906 26.847656 C 24.699219 26.847656 24.992188 26.640625 25.085938 26.320312 L 26.273438 22.203125 C 26.386719 21.816406 26.160156 21.414062 25.769531 21.300781 C 25.378906 21.191406 24.972656 21.414062 24.859375 21.800781 L 23.671875 25.917969 C 23.558594 26.304688 23.785156 26.707031 24.175781 26.820312 Z M 24.175781 26.820312 " fill-opacity="1" fill-rule="nonzero"/><path fill="#000000" d="M 26.304688 27.984375 C 26.441406 28.210938 26.6875 28.335938 26.933594 28.335938 C 27.0625 28.335938 27.195312 28.300781 27.316406 28.230469 L 29.691406 26.804688 C 30.039062 26.59375 30.148438 26.144531 29.9375 25.800781 C 29.730469 25.457031 29.277344 25.34375 28.929688 25.554688 L 26.554688 26.980469 C 26.203125 27.1875 26.09375 27.636719 26.304688 27.980469 Z M 26.304688 27.984375 " fill-opacity="1" fill-rule="nonzero"/><path fill="#000000" d="M 20.566406 25.199219 C 20.679688 25.492188 20.957031 25.667969 21.253906 25.667969 C 21.34375 25.667969 21.429688 25.652344 21.519531 25.621094 C 21.898438 25.476562 22.085938 25.054688 21.941406 24.675781 L 21.097656 22.5 C 20.949219 22.125 20.523438 21.9375 20.144531 22.082031 C 19.765625 22.226562 19.578125 22.648438 19.722656 23.027344 L 20.566406 25.203125 Z M 20.566406 25.199219 " fill-opacity="1" fill-rule="nonzero"/></svg>