<svg xmlns="http://www.w3.org/2000/svg" xmlns:xlink="http://www.w3.org/1999/xlink" width="77" zoomAndPan="magnify" viewBox="0 0 57.75 57.749998" height="77" preserveAspectRatio="xMidYMid meet" version="1.0"><defs><clipPath id="0d6b46e208"><path d="M 0 0 L 57.5 0 L 57.5 57.5 L 0 57.5 Z M 0 0 " clip-rule="nonzero"/></clipPath></defs><path fill="#d5d7f3" d="M 30.257812 11.214844 C 21.484375 11.214844 14.355469 18.34375 14.355469 27.117188 C 14.355469 29.992188 15.128906 32.769531 16.578125 35.210938 L 14.429688 42.96875 L 22.570312 41.035156 C 24.917969 42.339844 27.550781 43.015625 30.257812 43.015625 C 39.03125 43.015625 46.160156 35.886719 46.160156 27.117188 C 46.160156 18.34375 39.03125 11.214844 30.257812 11.214844 Z M 30.257812 40.40625 C 27.839844 40.40625 25.496094 39.753906 23.441406 38.546875 L 22.984375 38.28125 L 18.125 39.417969 L 19.40625 34.800781 L 19.09375 34.316406 C 17.714844 32.191406 16.988281 29.675781 16.988281 27.117188 C 16.988281 19.792969 22.957031 13.824219 30.28125 13.824219 C 37.605469 13.824219 43.574219 19.792969 43.574219 27.117188 C 43.550781 34.460938 37.578125 40.40625 30.257812 40.40625 Z M 30.257812 40.40625 " fill-opacity="1" fill-rule="nonzero"/><path fill="#d5d7f3" d="M 37.820312 32.84375 C 37.699219 33.496094 36.300781 34.316406 35.40625 34.558594 C 33.179688 35.140625 30.0625 33.449219 26.96875 30.765625 C 23.851562 28.058594 21.75 25.207031 22.039062 22.933594 C 22.136719 22.039062 22.789062 20.519531 23.417969 20.324219 C 24.023438 20.132812 24.457031 20.300781 25.085938 20.519531 C 25.398438 20.855469 25.785156 21.292969 26.222656 21.773438 C 26.800781 22.425781 27.1875 23.03125 27.453125 23.441406 C 27.648438 23.78125 27.574219 24.214844 27.285156 24.480469 L 26.222656 25.421875 C 26.027344 25.59375 25.957031 25.882812 26.078125 26.101562 C 26.414062 26.800781 27.1875 28.25 28.324219 29.242188 C 29.460938 30.234375 31.007812 30.789062 31.730469 31.03125 C 31.972656 31.101562 32.238281 31.007812 32.382812 30.789062 L 33.179688 29.605469 C 33.398438 29.289062 33.832031 29.144531 34.195312 29.289062 C 34.632812 29.484375 35.285156 29.773438 36.007812 30.257812 C 36.566406 30.621094 37.023438 30.957031 37.410156 31.222656 C 37.699219 31.804688 37.941406 32.214844 37.820312 32.84375 Z M 37.820312 32.84375 " fill-opacity="1" fill-rule="nonzero"/><g clip-path="url(#0d6b46e208)"><path fill="#d5d7f3" d="M 28.6875 57.371094 C 12.882812 57.371094 0 44.515625 0 28.6875 C 0 12.882812 12.882812 0 28.6875 0 C 44.492188 0 57.371094 12.882812 57.371094 28.6875 C 57.371094 44.515625 44.515625 57.371094 28.6875 57.371094 Z M 28.6875 1.570312 C 13.726562 1.570312 1.570312 13.726562 1.570312 28.6875 C 1.570312 43.644531 13.726562 55.800781 28.6875 55.800781 C 43.644531 55.800781 55.800781 43.644531 55.800781 28.6875 C 55.800781 13.726562 43.644531 1.570312 28.6875 1.570312 Z M 28.6875 1.570312 " fill-opacity="1" fill-rule="nonzero"/></g></svg>