<svg xmlns="http://www.w3.org/2000/svg" xmlns:xlink="http://www.w3.org/1999/xlink" width="324" zoomAndPan="magnify" viewBox="0 0 242.87999 242.999999" height="324" preserveAspectRatio="xMidYMid meet" version="1.0"><defs><clipPath id="2cd07ff02c"><path d="M 0 0.0585938 L 230.136719 0.0585938 L 230.136719 230.195312 L 0 230.195312 Z M 0 0.0585938 " clip-rule="nonzero"/></clipPath></defs><g clip-path="url(#2cd07ff02c)"><path fill="#d5d7f3" d="M 115.175781 0.0585938 C 146.988281 0.0585938 175.765625 12.953125 196.613281 33.800781 C 217.460938 54.628906 230.355469 83.425781 230.355469 115.238281 C 230.355469 147.027344 217.460938 175.828125 196.613281 196.671875 C 175.765625 217.519531 146.988281 230.414062 115.175781 230.414062 C 83.367188 230.414062 54.566406 217.519531 33.742188 196.671875 C 12.894531 175.828125 0 147.027344 0 115.238281 C 0 83.425781 12.894531 54.628906 33.742188 33.800781 C 54.566406 12.953125 83.367188 0.0585938 115.175781 0.0585938 Z M 191.921875 38.472656 C 172.292969 18.839844 145.152344 6.679688 115.175781 6.679688 C 85.199219 6.679688 58.0625 18.839844 38.410156 38.472656 C 18.78125 58.121094 6.621094 85.261719 6.621094 115.238281 C 6.621094 145.214844 18.78125 172.351562 38.410156 191.984375 C 58.0625 211.632812 85.199219 223.773438 115.175781 223.773438 C 145.152344 223.773438 172.292969 211.632812 191.921875 191.984375 C 211.574219 172.351562 223.714844 145.214844 223.714844 115.238281 C 223.714844 85.261719 211.574219 58.121094 191.921875 38.472656 Z M 191.921875 38.472656 " fill-opacity="1" fill-rule="nonzero"/></g><path fill="#d5d7f3" d="M 87.574219 103.734375 C 90.101562 111.066406 96.183594 119.5625 103.519531 126.894531 C 110.851562 134.230469 119.328125 140.3125 126.679688 142.839844 L 135.25 134.25 C 136.929688 132.589844 138.996094 131.527344 141.195312 131.085938 C 143.398438 130.679688 145.714844 130.890625 147.875 131.816406 L 149.882812 132.628906 C 156.328125 135.332031 163.820312 138.378906 171.289062 141.429688 L 172.097656 141.757812 C 173.683594 142.414062 175.070312 143.359375 176.191406 144.578125 C 177.332031 145.792969 178.179688 147.242188 178.699219 148.882812 C 179.222656 150.503906 179.375 152.183594 179.183594 153.824219 C 178.992188 155.464844 178.410156 157.046875 177.484375 158.511719 C 175.34375 161.929688 173.007812 164.863281 170.535156 167.335938 C 160.730469 177.160156 148.53125 180.265625 135.945312 179.089844 C 123.707031 177.96875 111.144531 172.757812 100.082031 165.808594 C 92.710938 161.175781 86.011719 155.753906 80.53125 150.289062 L 80.125 149.882812 C 74.640625 144.402344 69.238281 137.703125 64.605469 130.332031 C 57.65625 119.269531 52.445312 106.6875 51.304688 94.46875 C 50.148438 81.863281 53.253906 69.683594 63.078125 59.859375 C 65.570312 57.386719 68.503906 55.050781 71.902344 52.910156 C 73.347656 51.984375 74.949219 51.421875 76.589844 51.210938 L 76.589844 51.230469 C 78.214844 51.019531 79.890625 51.171875 81.515625 51.714844 C 83.171875 52.234375 84.621094 53.082031 85.835938 54.203125 C 87.035156 55.324219 88 56.710938 88.65625 58.316406 L 89.097656 59.433594 C 92.109375 66.808594 95.101562 74.179688 97.785156 80.511719 C 97.804688 80.550781 98.5 82.308594 98.578125 82.519531 C 99.523438 84.699219 99.734375 87.015625 99.308594 89.199219 C 98.886719 91.417969 97.824219 93.484375 96.144531 95.144531 Z M 98.828125 131.585938 C 90.140625 122.898438 83.019531 112.535156 80.625 103.636719 L 80.125 101.800781 L 91.453125 90.453125 C 92.1875 89.738281 92.652344 88.871094 92.824219 87.960938 C 93 87.035156 92.902344 86.050781 92.496094 85.105469 L 91.6875 83.058594 C 88.460938 75.398438 85.722656 68.660156 82.980469 61.925781 L 82.515625 60.785156 C 82.226562 60.109375 81.824219 59.511719 81.320312 59.046875 C 80.820312 58.585938 80.203125 58.21875 79.507812 57.984375 C 78.792969 57.773438 78.078125 57.695312 77.382812 57.773438 C 76.6875 57.890625 76.03125 58.121094 75.414062 58.507812 C 72.460938 60.359375 69.914062 62.386719 67.75 64.550781 C 59.507812 72.808594 56.902344 83.136719 57.886719 93.871094 C 58.910156 104.96875 63.734375 116.550781 70.203125 126.800781 C 74.527344 133.710938 79.621094 140 84.8125 145.195312 L 85.21875 145.597656 C 90.394531 150.792969 96.703125 155.867188 103.613281 160.210938 C 113.863281 166.660156 125.445312 171.484375 136.523438 172.527344 C 147.257812 173.511719 157.605469 170.90625 165.84375 162.644531 C 168.027344 160.480469 170.054688 157.933594 171.90625 155 C 172.292969 154.382812 172.523438 153.707031 172.621094 153.011719 C 172.71875 152.335938 172.640625 151.621094 172.410156 150.90625 C 172.175781 150.195312 171.828125 149.574219 171.367188 149.074219 C 170.902344 148.570312 170.304688 148.167969 169.609375 147.898438 L 168.800781 147.570312 C 161.945312 144.769531 155.113281 141.988281 147.316406 138.707031 L 145.289062 137.898438 C 144.363281 137.511719 143.378906 137.414062 142.453125 137.589844 C 141.542969 137.761719 140.65625 138.226562 139.941406 138.941406 L 128.613281 150.289062 L 126.757812 149.789062 C 117.878906 147.394531 107.496094 140.253906 98.828125 131.585938 Z M 98.828125 131.585938 " fill-opacity="1" fill-rule="nonzero"/></svg>